<?xml version="1.0" encoding="UTF-8"?>
<svg id="Layer_2" data-name="Layer 2" xmlns="http://www.w3.org/2000/svg" viewBox="0 0 1678.57 259.14">
  <defs>
    <style>
      .cls-1 {
        fill: #fff;
      }
    </style>
  </defs>
  <g id="Layer_1-2" data-name="Layer 1">
    <path class="cls-1" d="M0,234.17V16.73h167.26v91.99l-66.9,16.73h66.9v108.72H0ZM66.9,66.9v33.45h33.45v-33.45h-33.45ZM66.9,183.99h33.45v-33.45h-33.45v33.45Z"/>
    <path class="cls-1" d="M301.81,150.54h-33.45v83.63h-66.9V16.73h167.26v91.99l-66.9,16.73h66.9v108.72l-66.9,16.73v-100.36ZM268.36,66.9v33.45h33.45v-33.45h-33.45Z"/>
    <path class="cls-1" d="M872.74,16.73v217.44l-66.91,16.73V66.9h-33.45v167.26h-66.9V16.73h167.26Z"/>
    <path class="cls-1" d="M1108.39,234.17V0l66.91,16.73v167.26h33.45v-16.73l66.91-16.73v83.63h-167.26Z"/>
    <path class="cls-1" d="M1309.85,234.17V25.79l-15.43-9.07h82.34v167.26h33.45V16.73h82.34l-15.43,10.83v206.61h-167.26Z"/>
    <path class="cls-1" d="M1578.21,150.54v83.63h-66.91v-108.72h66.91l-66.91-16.73V16.73h66.91v83.63h33.45V16.73h66.91v91.99l-66.91,16.73h66.91v108.72h-66.91v-83.63h-33.45Z"/>
    <path class="cls-1" d="M575.73,228.28s7.72-7.72,0-16.98c-7.72-9.26-6.17-15.43-6.17-15.43,0,0,4.63-9.26-3.09-10.8h-4.63l-23.15-114.2h6.17s6.06,1.32,6.06-3.97c0,0,1.65-6.83-7.61-6.83,0,0,3.09-7.72-3.09-7.72l7.39-40.12h-23.37v9.26h-21.05v-9.26h-21.49v9.26h-20.17v-9.26h-30.86l6.17,16.98-9.26,9.26s-4.63,1.54-4.63,10.8c0,0,3.09,6.17-16.98,23.15,0,0-6.17,3.09-3.09,13.89v7.72l10.8,4.63s10.8,1.54,10.8-7.72,11.13-7.31,11.13-7.31c0,0,6.61.36,12.01-5.04,0,0-3.09,23.15-21.6,50.93-18.52,27.78-3.09,44.75-3.09,44.75,0,0,0,27.78-12.35,41.67-12.35,13.89,1.54,18.23,1.54,18.23h61.45s16.7-9.41,0-21.54c0,0-1.82-3.75,0-12.57,1.82-8.82,0-46.63,0-46.63h35.77v105.71l70.99-16.98s4.63-1.54,4.63-7.72c0,0,0-6.17-9.26-6.17ZM507.06,100.36h-33.45v-33.45h33.45v33.45Z"/>
    <polygon class="cls-1" points="604.37 16.73 604.37 23.81 632.06 23.81 632.06 26.9 604.37 26.9 604.37 34.61 632.06 34.61 632.06 37.7 604.37 37.7 604.37 45.41 645.95 45.41 645.95 48.5 604.37 48.5 604.37 51.59 645.95 51.59 645.95 54.67 604.37 54.67 604.37 62.39 632.06 62.39 632.06 65.47 604.37 65.47 604.37 73.19 632.06 73.19 632.06 76.28 604.37 76.28 604.37 83.99 645.95 83.99 645.95 87.08 604.37 87.08 604.37 90.17 645.95 90.17 645.95 93.25 604.37 93.25 604.37 100.97 632.06 100.97 632.06 104.05 604.37 104.05 604.37 111.77 632.06 111.77 632.06 114.86 604.37 114.86 604.37 122.57 645.95 122.57 645.95 125.66 604.37 125.66 604.37 128.75 645.95 128.75 645.95 131.83 604.37 131.83 604.37 139.55 632.06 139.55 632.06 142.63 604.37 142.63 604.37 150.35 632.06 150.35 632.06 153.44 604.37 153.44 604.37 161.15 645.95 161.15 645.95 164.24 604.37 164.24 604.37 165.78 645.95 165.78 645.95 168.87 604.37 168.87 604.37 176.58 632.06 176.58 632.06 179.67 604.37 179.67 604.37 187.39 632.06 187.39 632.06 190.47 604.37 190.47 604.37 198.19 645.95 198.19 645.95 201.28 604.37 201.28 604.37 204.36 645.95 204.36 645.95 207.45 604.37 207.45 604.37 215.16 632.06 215.16 632.06 218.25 604.37 218.25 604.37 225.97 632.06 225.97 632.06 229.05 604.37 229.05 604.37 234.17 671.28 234.17 671.28 16.73 604.37 16.73"/>
    <path class="cls-1" d="M1074.19,62.27v-23.25l-83.63-22.29h-83.63v217.44h66.91v-62.03l100.36-24.69v-23.94h-101.9v-61.23h101.9ZM1025.57,48.5c0-4.26,3.17-7.72,7.08-7.72h29.05c3.91,0,7.08,3.45,7.08,7.72v4.52c0,4.26-3.17,7.72-7.08,7.72h-29.05c-3.91,0-7.08-3.45-7.08-7.72v-4.52ZM1025.57,133.37c0-4.26,3.17-7.72,7.08-7.72h29.05c3.91,0,7.08,3.45,7.08,7.72v4.52c0,4.26-3.17,7.72-7.08,7.72h-29.05c-3.91,0-7.08-3.45-7.08-7.72v-4.52Z"/>
  </g>
</svg>
